<svg width="375" height="812" viewBox="0 0 375 812" fill="none" xmlns="http://www.w3.org/2000/svg">
  <!-- Background -->
  <rect width="375" height="812" fill="#F9F9FF"/>
  
  <!-- Header -->
  <rect x="0" y="0" width="375" height="120" fill="url(#gradient1)"/>
  
  <!-- Gradient Definition -->
  <defs>
    <linearGradient id="gradient1" x1="0%" y1="0%" x2="100%" y2="100%">
      <stop offset="0%" style="stop-color:#7B6CF6;stop-opacity:1" />
      <stop offset="100%" style="stop-color:#E96AC0;stop-opacity:1" />
    </linearGradient>
  </defs>
  
  <!-- App Title -->
  <text x="187" y="60" text-anchor="middle" font-family="system-ui" font-size="24" font-weight="bold" fill="white">FamilyDash</text>
  <text x="187" y="85" text-anchor="middle" font-family="system-ui" font-size="14" fill="rgba(255,255,255,0.8)">Dashboard Familiar</text>
  
  <!-- Stats Row -->
  <rect x="20" y="140" width="100" height="80" rx="12" fill="white" stroke="#E5E7EB" stroke-width="1"/>
  <text x="70" y="165" text-anchor="middle" font-family="system-ui" font-size="12" fill="#6B7280">Tareas</text>
  <text x="70" y="185" text-anchor="middle" font-family="system-ui" font-size="24" font-weight="bold" fill="#10B981">12</text>
  <text x="70" y="205" text-anchor="middle" font-family="system-ui" font-size="10" fill="#6B7280">pendientes</text>
  
  <rect x="135" y="140" width="100" height="80" rx="12" fill="white" stroke="#E5E7EB" stroke-width="1"/>
  <text x="185" y="165" text-anchor="middle" font-family="system-ui" font-size="12" fill="#6B7280">Eventos</text>
  <text x="185" y="185" text-anchor="middle" font-family="system-ui" font-size="24" font-weight="bold" fill="#3B82F6">5</text>
  <text x="185" y="205" text-anchor="middle" font-family="system-ui" font-size="10" fill="#6B7280">esta semana</text>
  
  <rect x="250" y="140" width="100" height="80" rx="12" fill="white" stroke="#E5E7EB" stroke-width="1"/>
  <text x="300" y="165" text-anchor="middle" font-family="system-ui" font-size="12" fill="#6B7280">Metas</text>
  <text x="300" y="185" text-anchor="middle" font-family="system-ui" font-size="24" font-weight="bold" fill="#8B5CF6">3</text>
  <text x="300" y="205" text-anchor="middle" font-family="system-ui" font-size="10" fill="#6B7280">activas</text>
  
  <!-- Quick Actions -->
  <rect x="20" y="240" width="335" height="120" rx="16" fill="white" stroke="#E5E7EB" stroke-width="1"/>
  <text x="187" y="265" text-anchor="middle" font-family="system-ui" font-size="16" font-weight="600" fill="#1F2937">Acciones Rápidas</text>
  
  <!-- Action Buttons -->
  <rect x="40" y="280" width="70" height="60" rx="12" fill="#10B981" opacity="0.1"/>
  <text x="75" y="310" text-anchor="middle" font-family="system-ui" font-size="12" font-weight="500" fill="#10B981">Nueva Tarea</text>
  
  <rect x="125" y="280" width="70" height="60" rx="12" fill="#3B82F6" opacity="0.1"/>
  <text x="160" y="310" text-anchor="middle" font-family="system-ui" font-size="12" font-weight="500" fill="#3B82F6">Agregar Evento</text>
  
  <rect x="210" y="280" width="70" height="60" rx="12" fill="#8B5CF6" opacity="0.1"/>
  <text x="245" y="310" text-anchor="middle" font-family="system-ui" font-size="12" font-weight="500" fill="#8B5CF6">Safe Room</text>
  
  <rect x="295" y="280" width="70" height="60" rx="12" fill="#F59E0B" opacity="0.1"/>
  <text x="330" y="310" text-anchor="middle" font-family="system-ui" font-size="12" font-weight="500" fill="#F59E0B">Ver Logros</text>
  
  <!-- Recent Activity -->
  <rect x="20" y="380" width="335" height="200" rx="16" fill="white" stroke="#E5E7EB" stroke-width="1"/>
  <text x="187" y="405" text-anchor="middle" font-family="system-ui" font-size="16" font-weight="600" fill="#1F2937">Actividad Reciente</text>
  
  <!-- Activity Items -->
  <rect x="40" y="420" width="295" height="40" rx="8" fill="#F9FAFB"/>
  <text x="60" y="440" font-family="system-ui" font-size="14" fill="#1F2937">María completó "Limpiar habitación"</text>
  <text x="60" y="455" font-family="system-ui" font-size="12" fill="#6B7280">Hace 2 horas</text>
  
  <rect x="40" y="470" width="295" height="40" rx="8" fill="#F9FAFB"/>
  <text x="60" y="490" font-family="system-ui" font-size="14" fill="#1F2937">Nuevo evento: "Cita médica"</text>
  <text x="60" y="505" font-family="system-ui" font-size="12" fill="#6B7280">Hace 4 horas</text>
  
  <rect x="40" y="520" width="295" height="40" rx="8" fill="#F9FAFB"/>
  <text x="60" y="540" font-family="system-ui" font-size="14" fill="#1F2937">Meta alcanzada: "Ahorrar para vacaciones"</text>
  <text x="60" y="555" font-family="system-ui" font-size="12" fill="#6B7280">Ayer</text>
  
  <!-- Bottom Navigation Placeholder -->
  <rect x="0" y="720" width="375" height="92" fill="white" stroke="#E5E7EB" stroke-width="1"/>
  <text x="187" y="760" text-anchor="middle" font-family="system-ui" font-size="12" fill="#6B7280">Navigation Tabs</text>
</svg>
